<svg width="26" height="26" viewBox="0 0 26 26" fill="none" xmlns="http://www.w3.org/2000/svg">
<path d="M8.66663 13H8.67638M12.9902 13H13M17.3235 13H17.3333" stroke="#F4F0F9" stroke-width="3" stroke-linecap="round" stroke-linejoin="round"/>
<path d="M13 23.8333C18.983 23.8333 23.8333 18.983 23.8333 13C23.8333 7.0169 18.983 2.16666 13 2.16666C7.01687 2.16666 2.16663 7.0169 2.16663 13C2.16663 14.733 2.57355 16.3709 3.29704 17.8235C3.48931 18.2095 3.5533 18.6508 3.44184 19.0673L2.7966 21.4789C2.51649 22.5257 3.47422 23.4834 4.52109 23.2034L6.93263 22.5581C7.34922 22.4467 7.79044 22.5107 8.17645 22.7029C9.62903 23.4264 11.267 23.8333 13 23.8333Z" stroke="#F4F0F9" stroke-width="2"/>
</svg>
